<svg height="480pt" viewBox="0 0 480 480.25132" width="480pt" xmlns="http://www.w3.org/2000/svg"><path d="m8.125 296.25h464v176h-464zm0 0" fill="#fcbc04"/><path d="m112.125 352.25h360v-56h-464v176h464v-40h-360c-17.671875 0-32-14.324219-32-32v-16c0-17.671875 14.328125-32 32-32zm0 0" fill="#e59730"/><path d="m168.125 168.25h80c22.09375 0 40 17.910156 40 40v88h-160v-88c0-22.089844 17.910156-40 40-40zm0 0" fill="#57b7eb"/><path d="m208.125 264.25c-26.507812 0-48-21.488281-48-48v-8c0-22.089844 17.910156-40 40-40h-32c-22.089844 0-40 17.910156-40 40v88h160v-32zm0 0" fill="#4891d3"/><path d="m224.125 192.25-16 16-16-16v-48h32zm0 0" fill="#fcbc04"/><path d="m256.125 232.25h32v64h-32zm0 0" fill="#fcbc04"/><path d="m128.125 232.25h32v64h-32zm0 0" fill="#fcbc04"/><path d="m192.125 173.453125c10.339844 3.730469 21.660156 3.730469 32 0v-29.203125h-32zm0 0" fill="#e59730"/><path d="m160.125 40.25h96v64c0 26.511719-21.488281 48-48 48-26.507812 0-48-21.488281-48-48zm0 0" fill="#f9e109"/><path d="m246.527344 40.25h-86.402344v64c.007812 2.519531.222656 5.035156.640625 7.519531 12.460937-1.929687 22.054687-12.015625 23.359375-24.558593 11.144531-2.789063 19.9375-11.339844 23.039062-22.398438 4.433594 4.648438 10.539063 7.328125 16.960938 7.4375.003906 15.234375 10.746094 28.351562 25.679688 31.359375-1.085938 2.753906-1.65625 5.683594-1.679688 8.640625.027344 4.316406 1.214844 8.542969 3.441406 12.242188 2.992188-6.328126 4.546875-13.242188 4.558594-20.242188v-64c-3.066406.03125-6.113281.515625-9.039062 1.441406-.152344-.492187-.339844-.972656-.558594-1.441406zm0 0" fill="#fcbc04"/><path d="m184.125 104.25v-64h-24v64c0 26.511719 21.492188 48 48 48 4.054688.003906 8.089844-.535156 12-1.597656-21.164062-5.464844-35.964844-24.542969-36-46.402344zm0 0" fill="#fcbc04"/><path d="m282.285156 74.570312c3.777344-5.363281 5.816406-11.757812 5.839844-18.320312 0-17.671875-14.328125-32-32-32-3.066406.03125-6.113281.515625-9.039062 1.441406-2.816407-9.515625-11.195313-16.316406-21.085938-17.113281-9.890625-.800781-19.25 4.570313-23.554688 13.511719-7.957031-11.507813-22.472656-16.511719-35.832031-12.351563-13.363281 4.160157-22.46875 16.519531-22.488281 30.511719v2.640625c-12.019531 5.882813-18.179688 19.464844-14.679688 32.378906 3.5 12.917969 15.671876 21.535157 29.015626 20.546875 13.347656-.992187 24.113281-11.3125 25.664062-24.605468 11.144531-2.789063 19.9375-11.339844 23.039062-22.398438 4.433594 4.648438 10.539063 7.328125 16.960938 7.4375.003906 15.234375 10.746094 28.351562 25.679688 31.359375-4.742188 12.167969 1.105468 25.890625 13.167968 30.894531 12.0625 5 25.90625-.558594 31.164063-12.511718 5.253906-11.953126-.011719-25.914063-11.851563-31.421876zm0 0" fill="#a1d51c"/><path d="m272.125 104.25c-10.144531-.027344-19.175781-6.433594-22.558594-16-.925781 2.570312-1.410156 5.273438-1.441406 8 0 13.257812 10.746094 24 24 24s24-10.742188 24-24c-.039062-2.726562-.523438-5.429688-1.4375-8-3.382812 9.566406-12.414062 15.972656-22.5625 16zm0 0" fill="#7ab92d"/><path d="m248.125 80.25c.023438-2.957031.59375-5.886719 1.679688-8.640625-14.933594-3.007813-25.675782-16.125-25.679688-31.359375-6.53125-.023438-12.773438-2.710938-17.28125-7.4375-3.042969 10.976562-11.695312 19.507812-22.71875 22.398438-1.316406 13.304687-11.90625 23.792968-25.21875 24.984374-13.316406 1.191407-25.597656-7.246093-29.261719-20.105468-.796875 2.59375-1.199219 5.289062-1.199219 8-.816406 15.464844 11.054688 28.664062 26.519532 29.480468 15.464844.820313 28.664062-11.054687 29.480468-26.519531 11.144532-2.789062 19.9375-11.339843 23.039063-22.398437 4.328125 4.628906 10.308594 7.363281 16.640625 7.597656.03125 15.027344 10.515625 28.007812 25.199219 31.203125-.773438-2.324219-1.175781-4.753906-1.199219-7.203125zm0 0" fill="#7ab92d"/><path d="m288.125 240.25v48c-8.835938 0-16-7.164062-16-16v-16c0-8.835938 7.164062-16 16-16zm0 0" fill="#f9e109"/><path d="m128.125 288.25v-48c8.835938 0 16 7.164062 16 16v16c0 8.835938-7.164062 16-16 16zm0 0" fill="#f9e109"/><path d="m328.125 144.25h144v112h-144zm0 0" fill="#57b7eb"/><path d="m352.125 160.25v-16h-24v112h144v-24h-48c-39.765625 0-72-32.234375-72-72zm0 0" fill="#4891d3"/><path d="m424.125 296.25h-48l6.402344-64c.863281-9.070312 8.484375-16 17.597656-16s16.734375 6.929688 17.601562 16zm0 0" fill="#aae1f9"/><path d="m408.6875 218.492188c-2.625-1.441407-5.566406-2.210938-8.5625-2.242188-9.113281 0-16.734375 6.929688-17.597656 16l-6.402344 64h24v-62.480469c.046875-6.222656 3.277344-11.988281 8.5625-15.277343zm0 0" fill="#57b7eb"/><path d="m32.125 264.25h48c8.835938 0 16 7.164062 16 16s-7.164062 16-16 16h-48zm0 0" fill="#f8664f"/><path d="m16.125 232.25h64c8.835938 0 16 7.164062 16 16s-7.164062 16-16 16h-64zm0 0" fill="#a1d51c"/><path d="m32.125 200.25h48c8.835938 0 16 7.164062 16 16s-7.164062 16-16 16h-48zm0 0" fill="#f8664f"/><path d="m8.125 296.25h464v32h-464zm0 0" fill="#f9e109"/><path d="m48.125 200.25h32c8.835938 0 16 7.164062 16 16h-32c-8.835938 0-16-7.164062-16-16zm0 0" fill="#f89c8d"/><path d="m48.125 264.25h32c8.835938 0 16 7.164062 16 16h-32c-8.835938 0-16-7.164062-16-16zm0 0" fill="#f89c8d"/><path d="m32.125 232.25h48c8.835938 0 16 7.164062 16 16h-48c-8.835938 0-16-7.164062-16-16zm0 0" fill="#c4f236"/><g fill="#39519d"><path d="m232.125 104.25c0 4.417969-3.582031 8-8 8s-8-3.582031-8-8 3.582031-8 8-8 8 3.582031 8 8zm0 0"/><path d="m200.125 104.25c0 4.417969-3.582031 8-8 8s-8-3.582031-8-8 3.582031-8 8-8 8 3.582031 8 8zm0 0"/><path d="m360.125 176.25c-4.417969 0-8 3.582031-8 8s3.582031 8 8 8h32c4.417969 0 8-3.582031 8-8s-3.582031-8-8-8zm0 0"/><path d="m424.125 176.25c-4.417969 0-8 3.582031-8 8s3.582031 8 8 8h16c4.417969 0 8-3.582031 8-8s-3.582031-8-8-8zm0 0"/><path d="m320.125 320.25h-312c-4.417969 0-8 3.582031-8 8v144c0 4.417969 3.582031 8 8 8s8-3.582031 8-8v-136h304c4.417969 0 8-3.582031 8-8s-3.582031-8-8-8zm0 0"/><path d="m472.125 320.25h-120c-4.417969 0-8 3.582031-8 8s3.582031 8 8 8h112v136c0 4.417969 3.582031 8 8 8s8-3.582031 8-8v-144c0-4.417969-3.582031-8-8-8zm0 0"/><path d="m72.125 424.25h-24v-56c0-4.417969-3.582031-8-8-8s-8 3.582031-8 8v64c0 4.417969 3.582031 8 8 8h32c4.417969 0 8-3.582031 8-8s-3.582031-8-8-8zm0 0"/><path d="m104.125 360.25c-4.417969 0-8 3.582031-8 8v64c0 4.417969 3.582031 8 8 8s8-3.582031 8-8v-64c0-4.417969-3.582031-8-8-8zm0 0"/><path d="m152.125 360.25h-16c-4.417969 0-8 3.582031-8 8v64c0 4.417969 3.582031 8 8 8h16c13.253906 0 24-10.742188 24-24-.035156-5.917969-2.257812-11.617188-6.238281-16 3.980469-4.378906 6.203125-10.078125 6.238281-16 0-13.253906-10.746094-24-24-24zm-8 16h8c4.417969 0 8 3.582031 8 8s-3.582031 8-8 8h-8zm8 48h-8v-16h8c4.417969 0 8 3.582031 8 8s-3.582031 8-8 8zm0 0"/><path d="m216.125 360.25h-16c-4.417969 0-8 3.582031-8 8v64c0 4.417969 3.582031 8 8 8s8-3.582031 8-8v-24h8c4.417969 0 8 3.582031 8 8v16c0 4.417969 3.582031 8 8 8s8-3.582031 8-8v-16c-.035156-5.917969-2.257812-11.617188-6.238281-16 3.980469-4.378906 6.203125-10.078125 6.238281-16 0-13.253906-10.746094-24-24-24zm-8 32v-16h8c4.417969 0 8 3.582031 8 8s-3.582031 8-8 8zm0 0"/><path d="m295.644531 365.453125c-1.148437-3.164063-4.152343-5.273437-7.519531-5.273437-3.363281 0-6.371094 2.109374-7.519531 5.273437l-24 64c-1.546875 4.152344.566406 8.773437 4.71875 10.316406 4.15625 1.546875 8.773437-.566406 10.320312-4.71875l4-10.800781h24.960938l4 10.800781c1.171875 3.136719 4.171875 5.210938 7.519531 5.199219.957031.007812 1.902344-.152344 2.800781-.480469 2-.734375 3.621094-2.238281 4.507813-4.175781.882812-1.9375.960937-4.148438.210937-6.140625zm-14 42.796875 6.480469-17.199219 6.480469 17.199219zm0 0"/><path d="m360.125 360.25h-16c-4.417969 0-8 3.582031-8 8v64c0 4.417969 3.582031 8 8 8s8-3.582031 8-8v-24h8c4.417969 0 8 3.582031 8 8v16c0 4.417969 3.582031 8 8 8s8-3.582031 8-8v-16c-.035156-5.917969-2.257812-11.617188-6.238281-16 3.980469-4.378906 6.203125-10.078125 6.238281-16 0-13.253906-10.746094-24-24-24zm-8 32v-16h8c4.417969 0 8 3.582031 8 8s-3.582031 8-8 8zm0 0"/><path d="m443.726562 361.132812c-3.933593-1.976562-8.722656-.402343-10.722656 3.519532l-8.878906 17.679687-8.878906-17.679687c-2.160156-3.589844-6.726563-4.90625-10.464844-3.015625s-5.386719 6.347656-3.777344 10.214843l15.121094 30.320313v30.078125c0 4.417969 3.582031 8 8 8s8-3.582031 8-8v-30.078125l15.121094-30.320313c1.976562-3.933593.402344-8.722656-3.519532-10.71875zm0 0"/><path d="m472.125 200.25c4.417969 0 8-3.582031 8-8v-48c0-4.417969-3.582031-8-8-8h-144c-4.417969 0-8 3.582031-8 8v112c0 4.417969 3.582031 8 8 8h43.121094l-2.402344 24h-72.71875v-84.238281c0-24.167969-19.589844-43.761719-43.757812-43.761719-4.417969 0-8 3.582031-8 8s3.582031 8 8 8c15.3125.046875 27.714843 12.449219 27.757812 27.761719v20.238281h-24c-4.417969 0-8 3.582031-8 8v56h-80v-56c0-4.417969-3.582031-8-8-8h-24v-20.238281c.042969-15.3125 12.449219-27.714844 27.761719-27.761719h20.238281v16c-.011719 2.128906.824219 4.171875 2.320312 5.679688l13.679688 13.601562v52.71875c0 4.417969 3.582031 8 8 8s8-3.582031 8-8v-52.71875l13.679688-13.601562c1.5-1.507813 2.332031-3.550782 2.320312-5.679688v-37.597656c12.4375-5.90625 22.265625-16.1875 27.601562-28.882813 9.882813 4.15625 21.1875 3.085938 30.117188-2.851562 8.925781-5.933594 14.289062-15.945313 14.28125-26.667969 0-4.417969-3.582031-8-8-8s-8 3.582031-8 8c0 8.835938-7.164062 16-16 16s-16-7.164062-16-16c.015625-1.972656.394531-3.925781 1.121094-5.757812.984375-2.132813.984375-4.589844 0-6.722657-1.132813-2.070312-3.125-3.53125-5.441406-4-11.367188-2.078125-19.636719-11.960937-19.679688-23.519531 0-4.417969-3.582031-8-8-8-4.355469-.015625-8.515625-1.804688-11.519531-4.957031-3.046875-3.203125-8.117188-3.332031-11.320313-.28125-3.203125 3.046875-3.328125 8.117187-.28125 11.320312 4.335938 4.511719 9.898438 7.65625 16 9.039063 2.308594 13.097656 10.972656 24.191406 23.121094 29.601562v3.277344c.011719 6.8125 2.230469 13.4375 6.320312 18.882812-5.65625 18.917969-24.269531 30.878907-43.828124 28.160157-19.558594-2.714844-34.207032-19.296875-34.492188-39.042969v-2.160156c13.078125-4.496094 22.410156-16.101563 24-29.839844.488281-4.417969-2.699219-8.394531-7.121094-8.878906-4.417968-.484375-8.390625 2.703125-8.878906 7.121094-1.003906 9.582031-8.71875 17.070312-18.324219 17.789062-9.609375.71875-18.355469-5.542969-20.769531-14.867188-2.417969-9.328124 2.1875-19.046874 10.933594-23.082031 3.089844-1.414062 4.949218-4.621093 4.640625-8l-.480469-2.082031c.011719-10.5 6.847656-19.777344 16.878906-22.894531 10.027344-3.117188 20.921875.648437 26.882813 9.296875 1.621093 2.363281 4.382812 3.683594 7.242187 3.449218 2.859375-.230468 5.375-1.972656 6.597656-4.570312 2.597657-5.617188 8.207032-9.234375 14.398438-9.28125 7.125.058594 13.355469 4.820312 15.28125 11.679688.589844 2.050781 1.972656 3.777343 3.839844 4.800781 1.882812 1.03125 4.105468 1.261719 6.160156.640625 2.167969-.714844 4.433594-1.09375 6.71875-1.121094 8.9375.023438 17.121094 5.011719 21.238281 12.945312 4.117188 7.929688 3.484375 17.492188-1.636719 24.816407-2.511718 3.625-1.617187 8.597656 2 11.121093 3.601563 2.527344 8.570313 1.667969 11.117188-1.921874 9.144531-12.839844 9.894531-29.855469 1.914062-43.449219-7.980468-13.59375-23.203124-21.234375-38.871093-19.511719-4.925781-8.597656-13.554688-14.429688-23.371094-15.792969s-19.710937 1.898438-26.789063 8.835938c-11.699218-9.765625-27.933593-12.035157-41.863281-5.851563-13.925781 6.183594-23.132812 19.742188-23.738281 34.96875-12.960938 8.203125-19.246094 23.757813-15.625 38.664063 3.621094 14.902343 16.347656 25.835937 31.625 27.175781.015625 21.617188 12.46875 41.296875 32 50.5625v5.4375h-20.238281c-24.167969 0-43.761719 19.59375-43.761719 43.761719v84.238281h-17.4375c.929688-2.5625 1.417969-5.269531 1.4375-8-.035156-5.917969-2.257812-11.617188-6.238281-16 8.148437-9.109375 8.148437-22.886719 0-32 3.980469-4.378906 6.203125-10.078125 6.238281-16 0-13.253906-10.746094-24-24-24h-48c-4.417969 0-8 3.582031-8 8v24h-8c-4.417969 0-8 3.582031-8 8s3.582031 8 8 8h64c4.417969 0 8 3.582031 8 8s-3.582031 8-8 8h-64c-4.417969 0-8 3.582031-8 8s3.582031 8 8 8h8v16h-16c-4.417969 0-8 3.582031-8 8s3.582031 8 8 8h464c4.417969 0 8-3.582031 8-8s-3.582031-8-8-8h-40.71875l-2.402344-24h43.121094c4.417969 0 8-3.582031 8-8v-33.679688c0-4.417968-3.582031-8-8-8s-8 3.582032-8 8v25.679688h-36.71875l-1.761719-16.878906c-1.457031-12.992188-12.445312-22.816406-25.519531-22.816406s-24.0625 9.824218-25.519531 22.816406l-1.761719 16.878906h-36.71875v-96h128v40c0 4.417969 3.582031 8 8 8zm-264-40c2.683594-.035156 5.355469-.277344 8-.71875v29.441406l-8 8-8-8v-29.363281c2.648438.417969 5.320312.632813 8 .640625zm-72 80h16v48h-16zm-96-16v-16h40c4.417969 0 8 3.582031 8 8s-3.582031 8-8 8zm0 64v-16h40c4.417969 0 8 3.582031 8 8s-3.582031 8-8 8zm224-48h16v48h-16zm136-16c4.960938.019531 9.109375 3.785156 9.601562 8.722656l5.597657 55.277344h-30.398438l5.601563-55.277344c.492187-4.9375 4.636718-8.703125 9.597656-8.722656zm0 0"/></g></svg>